<?xml version="1.0" standalone="no"?>
<!DOCTYPE svg PUBLIC "-//W3C//DTD SVG 20010904//EN"
 "http://www.w3.org/TR/2001/REC-SVG-20010904/DTD/svg10.dtd">
<svg version="1.0" xmlns="http://www.w3.org/2000/svg"
 width="200.000000pt" height="192.000000pt" viewBox="0 0 200.000000 192.000000"
 preserveAspectRatio="xMidYMid meet">

<g transform="translate(0.000000,192.000000) scale(0.100000,-0.100000)"
fill="#000000" stroke="none">
<path d="M835 1910 c-211 -30 -401 -124 -551 -274 -123 -124 -210 -277 -255
-451 -32 -124 -33 -320 -1 -449 26 -102 81 -225 142 -317 40 -59 202 -229 218
-229 4 0 27 32 52 72 86 136 236 243 400 285 85 21 235 21 320 0 164 -42 314
-149 400 -285 25 -40 48 -72 52 -72 16 0 178 170 218 229 61 91 116 215 142
317 31 122 30 332 0 446 -97 359 -355 619 -702 708 -96 24 -330 35 -435 20z
m317 -542 c65 -30 137 -98 167 -157 12 -22 21 -43 21 -46 0 -3 -153 -5 -340
-5 -187 0 -340 4 -340 8 0 5 17 35 38 68 44 68 93 108 171 141 79 33 201 29
283 -9z m-452 -253 c0 -8 9 -15 20 -15 13 0 20 -7 20 -20 0 -11 7 -20 15 -20
17 0 20 -26 4 -35 -6 -4 -13 2 -16 14 -3 12 -13 21 -24 21 -11 0 -19 6 -19 14
0 7 -9 16 -20 19 -11 3 -20 12 -20 21 0 9 8 16 20 16 11 0 20 -7 20 -15z m70
1 c0 -7 9 -16 20 -19 11 -3 20 -12 20 -21 0 -9 7 -16 16 -16 9 0 14 -7 12 -17
-5 -25 -29 -28 -35 -4 -3 12 -12 21 -19 21 -8 0 -14 6 -14 14 0 8 -7 16 -15
20 -8 3 -15 12 -15 21 0 8 7 15 15 15 8 0 15 -6 15 -14z m312 -19 c-2 -22 2
-30 17 -34 12 -3 21 -12 21 -19 0 -8 6 -14 14 -14 7 0 16 -9 19 -20 5 -18 14
-20 106 -20 l100 0 -13 -45 c-56 -184 -234 -289 -424 -249 -149 31 -264 159
-279 309 -5 47 -3 55 11 55 9 0 16 -7 16 -15 0 -8 7 -15 15 -15 8 0 15 -9 15
-20 0 -19 7 -20 119 -20 110 0 119 1 124 20 3 11 12 20 21 20 9 0 16 7 16 15
0 8 7 15 15 15 11 0 15 11 15 36 0 35 1 35 38 32 34 -3 37 -5 34 -31z m68 18
c0 -8 9 -15 20 -15 11 0 20 7 20 15 0 8 7 15 15 15 8 0 15 -6 15 -14 0 -8 -7
-16 -15 -20 -8 -3 -15 -12 -15 -21 0 -8 7 -15 15 -15 8 0 15 9 15 20 0 26 30
26 37 1 3 -11 13 -21 24 -24 13 -3 17 -11 13 -21 -9 -23 -34 -20 -34 4 0 23
-28 27 -36 5 -4 -8 -12 -15 -20 -15 -8 0 -14 7 -14 15 0 8 -9 15 -20 15 -11 0
-20 6 -20 14 0 8 -7 16 -15 20 -8 3 -15 12 -15 21 0 8 7 15 15 15 8 0 15 -7
15 -15z"/>
<path d="M642 344 c-37 -26 -26 -64 23 -81 51 -18 61 -28 45 -48 -16 -19 -54
-19 -70 0 -7 8 -17 12 -22 9 -20 -13 25 -44 64 -44 32 0 40 5 50 26 15 32 3
54 -40 68 -48 17 -60 33 -39 54 17 16 19 16 49 -1 38 -22 52 -12 19 14 -28 23
-49 24 -79 3z"/>
<path d="M1330 344 c0 -17 22 -14 28 4 2 7 -3 12 -12 12 -9 0 -16 -7 -16 -16z"/>
<path d="M779 294 c-7 -9 -13 -31 -13 -49 0 -18 6 -40 13 -49 17 -20 74 -21
91 -2 10 13 5 15 -31 13 -34 -2 -44 2 -47 16 -3 14 4 17 42 17 39 0 46 3 46
19 0 45 -72 70 -101 35z m75 -19 c4 -12 -3 -15 -29 -15 -33 0 -43 8 -28 23 12
13 51 7 57 -8z"/>
<path d="M910 243 c0 -76 18 -85 22 -10 3 48 5 52 31 55 27 3 27 2 27 -52 0
-43 3 -56 15 -56 18 0 21 63 5 104 -8 23 -15 26 -55 24 l-45 -1 0 -64z"/>
<path d="M1050 218 c0 -52 4 -88 10 -88 6 0 10 13 10 28 0 26 3 28 34 24 26
-3 37 1 50 19 20 29 20 58 0 87 -12 18 -24 22 -60 20 l-44 -1 0 -89z m91 51
c8 -16 8 -28 0 -45 -18 -41 -71 -25 -71 21 0 44 50 61 71 24z"/>
<path d="M1207 303 c-16 -15 -5 -21 28 -16 49 8 49 -22 1 -31 -23 -4 -37 -14
-41 -27 -10 -32 12 -49 61 -47 l44 1 0 44 c0 62 -14 83 -54 83 -18 0 -36 -3
-39 -7z m73 -67 c0 -19 -16 -36 -34 -36 -29 0 -39 10 -25 27 10 12 59 19 59 9z"/>
<path d="M1330 245 c0 -37 4 -65 10 -65 6 0 10 28 10 65 0 37 -4 65 -10 65 -6
0 -10 -28 -10 -65z"/>
</g>
</svg>
